<svg width="14" height="14" fill="none" xmlns="http://www.w3.org/2000/svg"><path d="M7 0C3.14 0 0 3.14 0 7s3.14 7 7 7 7-3.14 7-7-3.14-7-7-7zm0 12.833A5.84 5.84 0 011.167 7 5.84 5.84 0 017 1.167 5.84 5.84 0 0112.833 7 5.84 5.84 0 017 12.833z" fill="#56B77F"/><path d="M6.854 9.433a.706.706 0 00-.694.73.695.695 0 00.718.67h-.024a.706.706 0 00.694-.706.711.711 0 00-.694-.694zm.134-6.243a2.916 2.916 0 00-2.187.893.456.456 0 00-.1.292.484.484 0 00.467.478c.12 0 .237-.043.327-.122a1.909 1.909 0 011.383-.584c.787 0 1.166.426 1.166.928 0 1.073-1.907 1.207-1.907 2.602 0 .338.21.962.647.962h.012c.235 0 .426-.19.426-.426 0-.157-.111-.291-.111-.449 0-1.05 2.053-1.196 2.1-2.823 0-.992-.84-1.75-2.223-1.75z" fill="#56B77F"/></svg>