<svg width="20" height="19" fill="none" xmlns="http://www.w3.org/2000/svg"><path fill-rule="evenodd" clip-rule="evenodd" d="M9.997 1.984A6.08 6.08 0 006.18.639a6.04 6.04 0 00-4.244 1.725A5.883 5.883 0 00.163 6.57c0 .758.155 1.548.462 2.351.257.672.626 1.368 1.097 2.072.747 1.113 1.773 2.274 3.048 3.45a34.068 34.068 0 004.293 3.354l.54.346a.73.73 0 00.785 0l.54-.346a34.523 34.523 0 004.293-3.353c1.275-1.177 2.301-2.338 3.048-3.451.471-.704.842-1.4 1.097-2.072.308-.803.462-1.593.462-2.351a5.796 5.796 0 00-.476-2.32 5.918 5.918 0 00-1.295-1.885A6.04 6.04 0 0013.814.64a6.08 6.08 0 00-3.817 1.345zm6.755 1.712a4.188 4.188 0 00-2.933-1.192 4.23 4.23 0 00-2.648.928l-1.174.953-1.175-.953a4.215 4.215 0 00-2.643-.929 4.175 4.175 0 00-2.938 1.193c-.376.367-.68.807-.887 1.29a3.973 3.973 0 00-.326 1.583c0 .502.102 1.066.338 1.684.2.52.499 1.093.905 1.7.645.961 1.567 2.014 2.764 3.12a32.616 32.616 0 003.96 3.105 33.047 33.047 0 003.961-3.106c1.198-1.105 2.119-2.157 2.764-3.119.409-.61.707-1.18.903-1.695.236-.618.34-1.192.34-1.695a3.93 3.93 0 00-.323-1.575 4.066 4.066 0 00-.888-1.292z" fill="#79818C"/></svg>