<svg width="240" height="240" fill="none" xmlns="http://www.w3.org/2000/svg"><mask id="a" style="mask-type:alpha" maskUnits="userSpaceOnUse" x="31" y="31" width="178" height="178"><circle cx="119.875" cy="119.875" r="88.875" fill="#F8F8F8"/></mask><g mask="url(#a)"><circle cx="119.875" cy="119.875" r="87.375" stroke="#E9E9E9" stroke-width="3" stroke-dasharray="10 10"/><path fill-rule="evenodd" clip-rule="evenodd" d="M136.116 133.809c6.826-9.384 5.965-22.6-2.538-31.011-9.379-9.277-24.502-9.195-33.78.184-9.277 9.378-9.195 24.502.184 33.78 8.502 8.411 21.727 9.129 31.036 2.201l11.687 11.56a3.624 3.624 0 105.098-5.154l-11.687-11.56zm-7.359-26.137c6.687 6.615 6.745 17.398.131 24.085-6.615 6.687-17.398 6.745-24.085.131-6.687-6.615-6.746-17.398-.131-24.085 6.615-6.687 17.398-6.746 24.085-.131z" fill="#E9E9E9"/></g><g filter="url(#filter0_d)"><rect x="152.413" y="42.834" width="51.928" height="51.926" rx="25.963" transform="rotate(-11.009 152.413 42.834)" fill="#FFD400"/></g><path fill-rule="evenodd" clip-rule="evenodd" d="M177.168 56.776a4.472 4.472 0 014.913 2.513l10.711-2.084a1.135 1.135 0 01.433 2.23l-10.747 2.09a4.472 4.472 0 01-8.844.492 4.47 4.47 0 013.534-5.241zm1.344 6.91a2.57 2.57 0 10-.98-5.047 2.57 2.57 0 00.98 5.047zm-4.956-2.738a4.464 4.464 0 00.47 2.221l-1.973.384a1.135 1.135 0 01-.433-2.229l1.936-.376zm19.335 6.43a4.47 4.47 0 00-8.857.783l-10.68 2.078a1.135 1.135 0 00.434 2.228l10.789-2.099a4.47 4.47 0 008.369-1.628l2.014-.391a1.135 1.135 0 00-.434-2.23l-1.904.371a4.47 4.47 0 01.269.888zm-3.896 3.376a2.57 2.57 0 10-.983-5.046 2.57 2.57 0 00.983 5.046z" fill="#1F1F25"/><defs><filter id="filter0_d" x="125.498" y="29.393" width="99.937" height="99.936" filterUnits="userSpaceOnUse" color-interpolation-filters="sRGB"><feFlood flood-opacity="0" result="BackgroundImageFix"/><feColorMatrix in="SourceAlpha" values="0 0 0 0 0 0 0 0 0 0 0 0 0 0 0 0 0 0 127 0" result="hardAlpha"/><feOffset dx="-7.39" dy="16"/><feGaussianBlur stdDeviation="12"/><feColorMatrix values="0 0 0 0 0 0 0 0 0 0 0 0 0 0 0 0 0 0 0.12 0"/><feBlend in2="BackgroundImageFix" result="effect1_dropShadow"/><feBlend in="SourceGraphic" in2="effect1_dropShadow" result="shape"/></filter></defs></svg>