<svg width="20" height="19" viewBox="0 0 20 19" fill="none" xmlns="http://www.w3.org/2000/svg">
<path fill-rule="evenodd" clip-rule="evenodd" d="M9.99674 1.98401C9.79186 1.81784 9.57561 1.66532 9.34798 1.52646C8.39646 0.945995 7.30154 0.638688 6.1793 0.638688C5.37119 0.638688 4.58813 0.79348 3.84831 1.10079C3.13354 1.39671 2.48933 1.82239 1.93618 2.36416C1.3853 2.90166 0.945234 3.54203 0.640936 4.24898C0.324524 4.98424 0.162903 5.76503 0.162903 6.56858C0.162903 7.3266 0.317695 8.1165 0.625002 8.92005C0.88223 9.59157 1.251 10.2881 1.7222 10.9915C2.46885 12.1047 3.49548 13.2656 4.77024 14.4425C6.88269 16.3933 8.97466 17.7409 9.06343 17.7955L9.60293 18.1415C9.84194 18.2941 10.1493 18.2941 10.3883 18.1415L10.9278 17.7955C11.0165 17.7386 13.1062 16.3933 15.221 14.4425C16.4957 13.2656 17.5224 12.1047 18.269 10.9915C18.7402 10.2881 19.1112 9.59157 19.3662 8.92005C19.6735 8.1165 19.8283 7.3266 19.8283 6.56858C19.8306 5.76503 19.6689 4.98424 19.3525 4.24898C19.0474 3.54248 18.6075 2.90227 18.0573 2.36416C17.5067 1.82445 16.8576 1.39555 16.1452 1.10079C15.4064 0.793919 14.6141 0.636847 13.8142 0.638688C12.6919 0.638688 11.597 0.945995 10.6455 1.52646C10.4179 1.66532 10.2016 1.81784 9.99674 1.98401ZM16.7519 3.69584C16.3719 3.32335 15.9239 3.02734 15.4322 2.8239C14.9215 2.61177 14.3714 2.5022 13.8185 2.50347C13.0373 2.50346 12.2743 2.71719 11.6167 3.11841C11.4593 3.21442 11.311 3.31906 11.1714 3.43228L9.99674 4.3851L8.82203 3.43228C8.68244 3.31906 8.53428 3.21446 8.37687 3.11844C7.71919 2.71722 6.96045 2.50347 6.1793 2.50347C5.61345 2.50347 5.07375 2.61103 4.56366 2.82291C4.06949 3.0275 3.624 3.32129 3.241 3.6964C2.86478 4.06349 2.56169 4.50331 2.35385 4.98611C2.1374 5.48912 2.02769 6.01924 2.02769 6.56858C2.02769 7.07103 2.13019 7.63505 2.3664 8.25301C2.56582 8.77353 2.86471 9.34633 3.27087 9.95275C3.91593 10.9142 4.8377 11.9668 6.03539 13.0725C7.02702 13.9883 8.02109 14.7687 8.78126 15.3284C9.40634 15.7885 9.85545 16.0864 9.99507 16.1777C10.3768 15.927 12.1612 14.7279 13.956 13.0723C15.1537 11.9666 16.0748 10.9149 16.7199 9.95342C17.1285 9.34337 17.4275 8.77253 17.6228 8.25816C17.8593 7.63984 17.9635 7.066 17.9635 6.5633C17.9651 6.0181 17.8564 5.49039 17.6404 4.98782C17.4314 4.5041 17.1286 4.0643 16.7519 3.69584Z" fill="#79818C"/>
</svg>
